<?xml version="1.0" encoding="UTF-8"?>
<svg id="Livello_2" data-name="Livello 2" xmlns="http://www.w3.org/2000/svg" viewBox="0 0 157.41 126.04">
  <defs>
    <style>
      .cls-1 {
        fill: #fff;
      }

      .cls-2 {
        fill: #dba726;
      }

      .cls-3 {
        fill: #2b2b2b;
      }

      .cls-4 {
        fill: none;
        stroke: #2b2b2b;
        stroke-linecap: round;
        stroke-linejoin: round;
      }
    </style>
  </defs>
  <g id="OBJECTS">
    <path class="cls-2" d="M30.45,102.28c-9.05-11.16-18.18-27.72-18.98-40.52s2.12-26.02,9.44-36.55C32.42,8.61,53.43,.63,73.63,.04c21.8-.64,44.46,6.88,59.05,23.09,14.59,16.21,19.43,41.62,8.83,60.68-8.6,15.46-25.64,24.76-43,28.19-17.36,3.43-35.27,.21-52.89-1.45,0,0-9.16,14.71-25.52,15.48,6.13-4.86,10.75-13.32,10.34-23.76Z"/>
    <path class="cls-3" d="M111.59,88.9c13.48-12.91,24.94-39.87,13.9-54.78-11.04-14.91-37.04-22.1-55.98-20.71-11.08,.81-22.34,4.53-29.97,12.34-7.95,8.14-11.04,19.81-10.89,31,.14,10.29,3,20.91,10.05,28.62,7.48,8.18,18.9,12.22,30.16,13.17,11.26,.95,22.56-.86,33.71-2.66,0,0,5.44,8.65,15.74,7.64-4.01-4.53-7.39-9.19-6.73-14.6Z"/>
    <g>
      <path class="cls-1" d="M51.16,72.13c-9.03-7.47-9.17-22.37-2.23-31.82s19.12-13.87,30.84-14.23c8.06-.25,16.38,1.27,23.13,5.68,6.75,4.41,11.7,12,11.63,20.07-.09,10.33-8.23,19.21-17.69,23.35-9.46,4.15-22.4,5.24-33.15,3.22,0,0-5.38,9.19-15.68,8.51,2.07-3.68,5.55-10.29,3.16-14.78Z"/>
      <g>
        <path class="cls-2" d="M90.76,53.27c.07,2.49,2.07,4.45,4.46,4.37,2.39-.07,4.27-2.15,4.2-4.64-.07-2.49-2.07-4.45-4.46-4.37-2.39,.07-4.27,2.15-4.2,4.64Z"/>
        <path class="cls-2" d="M74.64,53.79c0,2.39,2.01,4.33,4.48,4.33s4.48-1.94,4.48-4.33-2.01-4.33-4.48-4.33-4.48,1.94-4.48,4.33Z"/>
        <path class="cls-2" d="M59.15,54.08c-.1,2.39,1.82,4.41,4.27,4.52,2.46,.1,4.53-1.75,4.63-4.14,.1-2.39-1.82-4.41-4.27-4.52-2.46-.1-4.53,1.75-4.63,4.14Z"/>
      </g>
    </g>
    <g>
      <path class="cls-4" d="M147.9,32.56s3.73,6.78,4.63,14.81"/>
      <path class="cls-4" d="M149.75,25.1s8.06,17.04,7.07,30.34"/>
      <path class="cls-4" d="M15.75,95.97s-6.05-5.6-9.09-16.27"/>
      <path class="cls-4" d="M.5,73.81s2.53,14.03,8.8,22.15"/>
      <path class="cls-4" d="M5.79,76.46s-2.02-7.34-2.68-14.47"/>
      <path class="cls-4" d="M146.58,29.2s-3.41-5.67-7.73-9.72"/>
    </g>
  </g>
</svg>